<?xml version="1.0"?>
<svg xmlns="http://www.w3.org/2000/svg" xmlns:xlink="http://www.w3.org/1999/xlink" xmlns:svgjs="http://svgjs.com/svgjs" version="1.1" width="512" height="512" x="0" y="0" viewBox="0 0 24 24" style="enable-background:new 0 0 512 512" xml:space="preserve" class=""><g><path xmlns="http://www.w3.org/2000/svg" d="m21.5 24h-19c-1.378 0-2.5-1.122-2.5-2.5v-19c0-1.378 1.122-2.5 2.5-2.5h19c1.378 0 2.5 1.122 2.5 2.5v19c0 1.378-1.122 2.5-2.5 2.5zm-19-23c-.827 0-1.5.673-1.5 1.5v19c0 .827.673 1.5 1.5 1.5h19c.827 0 1.5-.673 1.5-1.5v-19c0-.827-.673-1.5-1.5-1.5z" fill="#522402" data-original="#000000" style=""/><path xmlns="http://www.w3.org/2000/svg" d="m23.5 18h-23c-.276 0-.5-.224-.5-.5s.224-.5.5-.5h23c.276 0 .5.224.5.5s-.224.5-.5.5z" fill="#522402" data-original="#000000" style=""/><path xmlns="http://www.w3.org/2000/svg" d="m23.5 7h-23c-.276 0-.5-.224-.5-.5s.224-.5.5-.5h23c.276 0 .5.224.5.5s-.224.5-.5.5z" fill="#522402" data-original="#000000" style=""/><path xmlns="http://www.w3.org/2000/svg" d="m19.5 12.5h-15c-.276 0-.5-.224-.5-.5s.224-.5.5-.5h15c.276 0 .5.224.5.5s-.224.5-.5.5z" fill="#522402" data-original="#000000" style=""/><path xmlns="http://www.w3.org/2000/svg" d="m16.5 15.5c-.128 0-.256-.049-.354-.146-.195-.195-.195-.512 0-.707l2.647-2.647-2.646-2.646c-.195-.195-.195-.512 0-.707s.512-.195.707 0l3 3c.195.195.195.512 0 .707l-3 3c-.098.097-.226.146-.354.146z" fill="#522402" data-original="#000000" style=""/><path xmlns="http://www.w3.org/2000/svg" d="m12 7c-.276 0-.5-.224-.5-.5v-6c0-.276.224-.5.5-.5s.5.224.5.5v6c0 .276-.224.5-.5.5z" fill="#522402" data-original="#000000" style=""/><path xmlns="http://www.w3.org/2000/svg" d="m12 24c-.276 0-.5-.224-.5-.5v-6c0-.276.224-.5.5-.5s.5.224.5.5v6c0 .276-.224.5-.5.5z" fill="#522402" data-original="#000000" style=""/><script/></g></svg>
