<?xml version="1.0"?>
<svg xmlns="http://www.w3.org/2000/svg" xmlns:xlink="http://www.w3.org/1999/xlink" xmlns:svgjs="http://svgjs.com/svgjs" version="1.1" width="512" height="512" x="0" y="0" viewBox="0 0 512 512" style="enable-background:new 0 0 512 512" xml:space="preserve" class=""><circle r="256" cx="256" cy="256" fill="#ffe5c3" shape="circle"/><g transform="matrix(0.7499999999999999,0,0,0.75,63.99999988079077,121.28417968750003)"><path xmlns="http://www.w3.org/2000/svg" d="m467.863281 300.585938 43.375-11.636719c.449219-.121094.761719-.53125.761719-.996094v-122.667969c0-10.824218-8.773438-19.597656-19.597656-19.597656h-373.335938c-10.824218 0-19.59375 8.773438-19.59375 19.597656v185.390625c0 10.824219 8.769532 19.597657 19.59375 19.597657h373.335938c10.824218 0 19.597656-8.773438 19.597656-19.597657v-28.378906c0-.410156-.246094-.78125-.621094-.945313l-43.65625-18.824218c-.898437-.386719-.804687-1.6875.140625-1.941406zm0 0" fill="#a65d51" data-original="#a65d51" style="" class=""/><path xmlns="http://www.w3.org/2000/svg" d="m398.996094 250.339844c21.125 0 38.253906-17.125 38.253906-38.253906v-66.398438h-318.183594c-10.820312 0-19.59375 8.773438-19.59375 19.597656v85.054688zm0 0" fill="#66362f" data-original="#66362f" style="" class=""/><path xmlns="http://www.w3.org/2000/svg" d="m392.933594 0h-373.335938c-10.824218 0-19.597656 8.773438-19.597656 19.597656v185.394532c0 10.820312 8.773438 19.59375 19.597656 19.59375h373.335938c10.820312 0 19.59375-8.773438 19.59375-19.59375v-185.394532c0-10.824218-8.773438-19.597656-19.59375-19.597656zm0 0" fill="#eab875" data-original="#eab875" style="" class=""/><path xmlns="http://www.w3.org/2000/svg" d="m412.527344 118.910156v-22.691406c-8.015625 9.957031-22.582032 24.828125-30.859375 32-31.042969 26.925781-71.835938 43.988281-114.863281 48.054688-31.902344 3-63.066407-.855469-100.5-6.210938l-2.742188-.394531c-32.9375-4.703125-67-9.566407-101.027344-7.289063-21.078125 1.417969-45.078125 8.773438-62.535156 15.917969v16.308594c17.53125-7.8125 43.128906-15.886719 63.539062-17.257813 32.460938-2.179687 65.730469 2.574219 97.902344 7.171875l2.738282.390625c30.21875 4.324219 67.824218 9.707032 104.03125 6.296875 46.113281-4.355469 89.898437-22.699219 123.28125-51.652343 5.609374-4.859376 13.667968-12.773438 21.035156-20.644532zm0 0" fill="#c68d4e" data-original="#c68d4e" style="" class=""/><path xmlns="http://www.w3.org/2000/svg" d="m0 24.671875c30.523438 3.457031 60.566406 19.378906 89.664062 34.808594 10.734376 5.691406 20.871094 11.066406 31.085938 15.878906 21.554688 10.148437 43.3125 16.203125 64.667969 17.996094 2.597656.222656 5.148437.332031 7.65625.328125 16.484375 0 30.851562-4.71875 41.019531-13.59375 7.6875-6.71875 11.871094-15.640625 12.421875-26.511719.546875-10.734375-2.652344-23.378906-9.246094-36.558594-2.882812-5.757812-6.375-11.523437-10.253906-17.019531h-18.941406c12.457031 14.710938 24.308593 36.195312 23.460937 52.816406-.34375 6.75-2.734375 11.976563-7.308594 15.972656-11.628906 10.152344-28.511718 10.386719-37.546874 9.617188-19.574219-1.640625-39.605469-7.234375-59.539063-16.621094-9.890625-4.65625-19.875-9.953125-30.449219-15.558594-29.859375-15.835937-60.675781-32.175781-93.386718-36.277343-.199219-.089844-.402344-.167969-.609376-.238281-1.703124 2.90625-2.695312 6.277343-2.695312 9.886718zm0 0" fill="#c68d4e" data-original="#c68d4e" style="" class=""/><path xmlns="http://www.w3.org/2000/svg" d="m296.007812 38.183594c6.105469 26.898437-.515624 53.742187-16.863281 68.390625-12.460937 11.164062-29.132812 14.84375-40.925781 15.960937-14.816406 1.40625-30.316406-.1875-45.300781-1.726562l-2.550781-.261719c-52.464844-5.363281-108.78125-9.226563-165.148438-1.257813-8.066406 1.136719-18.484375 3.195313-25.21875 4.59375v15.328126c8.648438-1.839844 19.707031-4 27.3125-5.070313 54.785156-7.738281 110.011719-3.9375 161.53125 1.324219l2.539062.261718c15.710938 1.617188 31.957032 3.285157 48.25 1.742188 20.128907-1.910156 37.25-8.730469 49.519532-19.726562 10.710937-9.59375 18.242187-22.9375 21.78125-38.59375 3.183594-14.085938 3.082031-29.398438-.296875-44.285157-2.097657-9.265625-7.785157-23.15625-13.167969-34.863281h-16.574219c5.933594 12.269531 12.960938 28.683594 15.113281 38.183594zm0 0" fill="#c68d4e" data-original="#c68d4e" style="" class=""/><g xmlns="http://www.w3.org/2000/svg" fill="#66362f"><path d="m99.472656 279.171875h97.4375c4.144532 0 7.5-3.355469 7.5-7.5s-3.355468-7.5-7.5-7.5h-97.4375zm0 0" fill="#66362f" data-original="#66362f" style="" class=""/><path d="m512 184.753906h-33.695312c-4.144532 0-7.5 3.355469-7.5 7.5 0 4.144532 3.355468 7.5 7.5 7.5h33.695312zm0 0" fill="#66362f" data-original="#66362f" style="" class=""/><path d="m467.722656 302.527344c-.898437-.386719-.804687-1.6875.140625-1.941406l25.09375-6.734376h-190.273437c-4.144532 0-7.5 3.359376-7.5 7.5 0 4.144532 3.355468 7.5 7.5 7.5h179.710937zm0 0" fill="#66362f" data-original="#66362f" style="" class=""/></g><script/></g></svg>
