<?xml version="1.0"?>
<svg xmlns="http://www.w3.org/2000/svg" xmlns:xlink="http://www.w3.org/1999/xlink" xmlns:svgjs="http://svgjs.com/svgjs" version="1.1" width="512" height="512" x="0" y="0" viewBox="0 0 512.254 512.254" style="enable-background:new 0 0 512 512" xml:space="preserve" class=""><g><g xmlns="http://www.w3.org/2000/svg" id="XMLID_1034_"><g id="XMLID_2047_"><path id="XMLID_2053_" d="m512.127 256.127c0-3.729-2.075-7.149-5.384-8.871l-96.463-50.192 96.463-50.192c3.309-1.722 5.384-5.142 5.384-8.871s-2.075-7.149-5.384-8.871l-83.086-43.232c-4.903-2.549-10.938-.644-13.487 4.255s-.645 10.938 4.255 13.487l66.037 34.36-224.335 116.727-224.335-116.727 224.335-116.727 78.467 40.828c4.903 2.549 10.938.643 13.487-4.255 2.549-4.899.644-10.938-4.255-13.487l-83.083-43.23c-2.895-1.505-6.338-1.505-9.232 0l-246 128c-3.309 1.721-5.384 5.141-5.384 8.871s2.075 7.149 5.384 8.871l96.463 50.192-96.463 50.193c-3.309 1.722-5.384 5.142-5.384 8.871s2.075 7.149 5.384 8.871l96.463 50.192-96.463 50.193c-3.309 1.722-5.384 5.142-5.384 8.871s2.075 7.149 5.384 8.871l246 128c1.447.752 3.031 1.129 4.616 1.129s3.169-.376 4.616-1.129l246-128c3.309-1.722 5.384-5.142 5.384-8.871s-2.075-7.149-5.384-8.871l-96.463-50.193 96.463-50.192c3.309-1.722 5.384-5.142 5.384-8.871zm-251.384 18.744 127.871-66.535 29.814 15.513-223.978 116.913-39.902-20.762 91.847-47.79 5.115 2.661c1.447.752 3.031 1.129 4.616 1.129s3.17-.377 4.617-1.129zm-36.013-13.935-91.848 47.79-39.712-20.663 91.848-47.79zm-101.09-52.6 39.712 20.664-91.848 47.79-39.713-20.664zm356.822 165.918-224.335 116.727-224.335-116.727 91.848-47.79 127.871 66.535c1.447.752 3.031 1.129 4.616 1.129s3.169-.376 4.616-1.129l127.871-66.535zm-224.335-1.4-40.033-20.83 223.979-116.912 40.389 21.015z" fill="#fffbf1" data-original="#000000" style="" class=""/><path id="XMLID_2078_" d="m379.127 84c2.63 0 5.21-1.07 7.069-2.93 1.86-1.86 2.931-4.44 2.931-7.07s-1.07-5.21-2.931-7.07c-1.859-1.86-4.439-2.93-7.069-2.93s-5.21 1.07-7.07 2.93-2.93 4.44-2.93 7.07 1.069 5.21 2.93 7.07 4.44 2.93 7.07 2.93z" fill="#fffbf1" data-original="#000000" style="" class=""/></g></g><script/></g></svg>
