<?xml version="1.0"?>
<svg xmlns="http://www.w3.org/2000/svg" xmlns:xlink="http://www.w3.org/1999/xlink" xmlns:svgjs="http://svgjs.com/svgjs" version="1.1" width="512" height="512" x="0" y="0" viewBox="0 0 981.4 981.4" style="enable-background:new 0 0 512 512" xml:space="preserve" class=""><g>
<g xmlns="http://www.w3.org/2000/svg">
	<path d="M490.7,981.4c41.4,0,75-33.601,75-75V75c0-41.4-33.6-75-75-75s-75,33.6-75,75v831.3C415.7,947.8,449.3,981.4,490.7,981.4z" fill="#fffbf1" data-original="#000000" style="" class=""/>
	<path d="M660.8,732.3c14.601,14.601,33.801,22,53,22c19.2,0,38.4-7.3,53-22l189.7-189.699c14.101-14.101,22-33.101,22-53   c0-19.9-7.899-39-22-53L769,249.1c-29.3-29.3-76.8-29.3-106.1,0c-29.3,29.3-29.3,76.8,0,106.1l134.5,134.5L660.8,626.3   C631.5,655.601,631.5,703.101,660.8,732.3z" fill="#fffbf1" data-original="#000000" style="" class=""/>
	<path d="M2.9,489.601c0,19.899,7.9,39,22,53L214.6,732.3c14.6,14.601,33.8,22,53,22c19.2,0,38.4-7.3,53-22   c29.3-29.3,29.3-76.8,0-106.1l-136.7-136.6l134.5-134.5c29.3-29.3,29.3-76.8,0-106.1c-29.3-29.3-76.8-29.3-106.1,0L24.8,436.601   C10.8,450.601,2.9,469.7,2.9,489.601z" fill="#fffbf1" data-original="#000000" style="" class=""/>
</g>
<g xmlns="http://www.w3.org/2000/svg">
</g>
<g xmlns="http://www.w3.org/2000/svg">
</g>
<g xmlns="http://www.w3.org/2000/svg">
</g>
<g xmlns="http://www.w3.org/2000/svg">
</g>
<g xmlns="http://www.w3.org/2000/svg">
</g>
<g xmlns="http://www.w3.org/2000/svg">
</g>
<g xmlns="http://www.w3.org/2000/svg">
</g>
<g xmlns="http://www.w3.org/2000/svg">
</g>
<g xmlns="http://www.w3.org/2000/svg">
</g>
<g xmlns="http://www.w3.org/2000/svg">
</g>
<g xmlns="http://www.w3.org/2000/svg">
</g>
<g xmlns="http://www.w3.org/2000/svg">
</g>
<g xmlns="http://www.w3.org/2000/svg">
</g>
<g xmlns="http://www.w3.org/2000/svg">
</g>
<g xmlns="http://www.w3.org/2000/svg">
</g>
<script/></g></svg>
