<?xml version="1.0"?>
<svg xmlns="http://www.w3.org/2000/svg" xmlns:xlink="http://www.w3.org/1999/xlink" xmlns:svgjs="http://svgjs.com/svgjs" version="1.1" width="512" height="512" x="0" y="0" viewBox="0 0 97.054 97.054" style="enable-background:new 0 0 512 512" xml:space="preserve" class=""><g>
<g xmlns="http://www.w3.org/2000/svg">
	<g>
		<path d="M63.027,0h-29v29h29V0z M58.027,24h-19V5h19V24z" fill="#522402" data-original="#000000" style=""/>
		<rect x="46.026" y="33.952" width="5" height="28.845" fill="#522402" data-original="#000000" style=""/>
		<path d="M48.527,66.804c-8.34,0-15.125,6.785-15.125,15.125c0,8.341,6.785,15.125,15.125,15.125s15.125-6.784,15.125-15.125    C63.652,73.589,56.867,66.804,48.527,66.804z M48.527,92.054c-5.583,0-10.125-4.542-10.125-10.125s4.542-10.125,10.125-10.125    s10.125,4.542,10.125,10.125S54.11,92.054,48.527,92.054z" fill="#522402" data-original="#000000" style=""/>
	</g>
</g>
<g xmlns="http://www.w3.org/2000/svg">
</g>
<g xmlns="http://www.w3.org/2000/svg">
</g>
<g xmlns="http://www.w3.org/2000/svg">
</g>
<g xmlns="http://www.w3.org/2000/svg">
</g>
<g xmlns="http://www.w3.org/2000/svg">
</g>
<g xmlns="http://www.w3.org/2000/svg">
</g>
<g xmlns="http://www.w3.org/2000/svg">
</g>
<g xmlns="http://www.w3.org/2000/svg">
</g>
<g xmlns="http://www.w3.org/2000/svg">
</g>
<g xmlns="http://www.w3.org/2000/svg">
</g>
<g xmlns="http://www.w3.org/2000/svg">
</g>
<g xmlns="http://www.w3.org/2000/svg">
</g>
<g xmlns="http://www.w3.org/2000/svg">
</g>
<g xmlns="http://www.w3.org/2000/svg">
</g>
<g xmlns="http://www.w3.org/2000/svg">
</g>
<script/></g></svg>
