<?xml version="1.0"?>
<svg xmlns="http://www.w3.org/2000/svg" xmlns:xlink="http://www.w3.org/1999/xlink" xmlns:svgjs="http://svgjs.com/svgjs" version="1.1" width="512" height="512" x="0" y="0" viewBox="0 0 455.431 455.431" style="enable-background:new 0 0 512 512" xml:space="preserve" class=""><circle r="227.7155" cx="227.7155" cy="227.7155" fill="#ffe5c3" shape="circle"/><g transform="matrix(0.7,0,0,0.7,68.31450347900392,68.31466598510744)">
<path xmlns="http://www.w3.org/2000/svg" style="" d="M405.493,412.764c-69.689,56.889-287.289,56.889-355.556,0c-69.689-56.889-62.578-300.089,0-364.089  s292.978-64,355.556,0S475.182,355.876,405.493,412.764z" fill="#e08826" data-original="#e08826"/>
<path xmlns="http://www.w3.org/2000/svg" style="" d="M229.138,313.209c-62.578,49.778-132.267,75.378-197.689,76.8  c-48.356-82.489-38.4-283.022,18.489-341.333c51.2-52.622,211.911-62.578,304.356-29.867  C377.049,112.676,330.116,232.142,229.138,313.209z" fill="#f29a2f" data-original="#f29a2f" class=""/>
<g xmlns="http://www.w3.org/2000/svg">
	<path style="" d="M129.582,269.12c18.489,0,28.444-15.644,28.444-35.556v-75.378h29.867v76.8   c0,41.244-25.6,61.156-58.311,61.156s-58.311-21.333-58.311-61.156v-76.8h29.867v75.378   C101.138,253.476,111.093,269.12,129.582,269.12z" fill="#ffffff" data-original="#ffffff" class=""/>
	<path style="" d="M314.471,170.987c9.956,8.533,14.222,21.333,14.222,36.978c0,17.067-4.267,29.867-14.222,36.978   c-9.956,8.533-25.6,11.378-45.511,11.378h-18.489v38.4h-29.867V158.187h48.356C290.293,158.187,304.516,162.453,314.471,170.987z    M291.716,225.031c4.267-4.267,5.689-9.956,5.689-18.489c0-8.533-2.844-12.8-7.111-17.067c-4.267-2.844-12.8-5.689-22.756-5.689   h-17.067v45.511h19.911C281.76,230.72,288.871,229.298,291.716,225.031z" fill="#ffffff" data-original="#ffffff" class=""/>
	<path style="" d="M350.027,158.187h34.133v24.178l-5.689,71.111h-22.756l-5.689-71.111V158.187z M350.027,280.498   c0-9.956,7.111-17.067,17.067-17.067s17.067,7.111,17.067,17.067s-7.111,17.067-17.067,17.067   C357.138,297.564,350.027,289.031,350.027,280.498z" fill="#ffffff" data-original="#ffffff" class=""/>
</g>
<g xmlns="http://www.w3.org/2000/svg">
</g>
<g xmlns="http://www.w3.org/2000/svg">
</g>
<g xmlns="http://www.w3.org/2000/svg">
</g>
<g xmlns="http://www.w3.org/2000/svg">
</g>
<g xmlns="http://www.w3.org/2000/svg">
</g>
<g xmlns="http://www.w3.org/2000/svg">
</g>
<g xmlns="http://www.w3.org/2000/svg">
</g>
<g xmlns="http://www.w3.org/2000/svg">
</g>
<g xmlns="http://www.w3.org/2000/svg">
</g>
<g xmlns="http://www.w3.org/2000/svg">
</g>
<g xmlns="http://www.w3.org/2000/svg">
</g>
<g xmlns="http://www.w3.org/2000/svg">
</g>
<g xmlns="http://www.w3.org/2000/svg">
</g>
<g xmlns="http://www.w3.org/2000/svg">
</g>
<g xmlns="http://www.w3.org/2000/svg">
</g>
<script/></g></svg>
